<?xml version="1.0" standalone="no"?>
<!DOCTYPE svg PUBLIC "-//W3C//DTD SVG 20010904//EN"
 "http://www.w3.org/TR/2001/REC-SVG-20010904/DTD/svg10.dtd">
<svg version="1.0" xmlns="http://www.w3.org/2000/svg"
 width="515.000000pt" height="515.000000pt" viewBox="0 0 515.000000 515.000000"
 preserveAspectRatio="xMidYMid meet">
<metadata>
Created by potrace 1.14, written by Peter Selinger 2001-2017
</metadata>
<g transform="translate(0.000000,515.000000) scale(0.100000,-0.100000)"
fill="#000000" stroke="none">
<path d="M2578 5076 c-2 -3 -142 -11 -278 -17 -14 -1 -56 -7 -175 -24 -252
-38 -667 -194 -863 -326 -24 -16 -45 -29 -48 -29 -11 0 -183 -125 -248 -180
-452 -384 -736 -847 -860 -1405 -41 -183 -55 -316 -56 -528 -1 -176 7 -276 36
-457 20 -128 85 -354 141 -490 75 -184 229 -460 316 -566 9 -10 41 -50 72 -89
173 -216 438 -444 667 -576 60 -34 299 -154 325 -162 10 -4 36 -13 58 -22 61
-24 253 -84 287 -90 17 -3 34 -8 38 -10 10 -6 233 -44 309 -53 139 -15 535 -7
626 14 11 2 34 6 50 8 112 14 348 78 490 133 232 90 494 241 681 394 104 84
266 243 329 321 28 34 57 70 66 79 27 27 144 200 195 289 153 262 248 523 308
845 18 94 29 249 30 400 1 161 -8 335 -19 368 -2 7 -6 30 -9 52 -34 261 -158
610 -306 862 -48 81 -141 222 -165 250 -5 6 -21 26 -35 44 -98 129 -287 317
-435 432 -398 309 -900 498 -1386 523 -63 3 -119 7 -126 9 -6 2 -13 2 -15 1z"/>
</g>
</svg>
