<?xml version="1.0" standalone="no"?>
<!DOCTYPE svg PUBLIC "-//W3C//DTD SVG 20010904//EN"
 "http://www.w3.org/TR/2001/REC-SVG-20010904/DTD/svg10.dtd">
<svg version="1.0" xmlns="http://www.w3.org/2000/svg"
 width="1751.000000pt" height="1751.000000pt" viewBox="0 0 1751.000000 1751.000000"
 preserveAspectRatio="xMidYMid meet">
<metadata>
Created by potrace 1.14, written by Peter Selinger 2001-2017
</metadata>
<g transform="translate(0.000000,1751.000000) scale(0.100000,-0.100000)"
fill="#000000" stroke="none">
<path d="M8200 17229 c-913 -59 -1773 -250 -2595 -574 -931 -368 -1745 -863
-2513 -1531 -189 -164 -632 -607 -796 -796 -661 -760 -1162 -1581 -1522 -2490
-336 -850 -525 -1706 -584 -2638 -13 -213 -13 -807 0 -1020 120 -1922 838
-3669 2106 -5128 164 -189 607 -632 796 -796 768 -668 1582 -1163 2513 -1531
828 -327 1692 -516 2620 -575 206 -13 804 -13 1010 0 927 59 1793 249 2620
575 931 368 1745 863 2513 1531 189 164 632 607 796 796 668 768 1163 1582
1531 2513 327 828 516 1692 575 2620 13 206 13 804 0 1010 -59 928 -248 1792
-575 2620 -368 931 -863 1745 -1531 2513 -164 189 -607 632 -796 796 -768 668
-1582 1163 -2513 1531 -829 327 -1691 516 -2620 575 -184 12 -851 11 -1035 -1z"/>
</g>
</svg>
